<?xml version="1.0" encoding="utf-8"?>
<!-- Generator: Adobe Illustrator 22.0.1, SVG Export Plug-In . SVG Version: 6.00 Build 0)  -->
<svg version="1.1" xmlns="http://www.w3.org/2000/svg" xmlns:xlink="http://www.w3.org/1999/xlink" x="0px" y="0px"
	 viewBox="0 0 1280 1024" style="enable-background:new 0 0 1280 1024;" xml:space="preserve">
<style type="text/css">
	.st0{fill:#FFFFFF;}
	.st1{fill:#020219;stroke:#050505;stroke-miterlimit:10;}
	.st2{fill:#020219;}
	.st3{fill:#050505;}
	.st4{fill:#020211;stroke:#020219;stroke-width:3;stroke-miterlimit:10;}
	.st5{fill:none;stroke:#000000;stroke-miterlimit:10;}
	.st6{fill:#E8E8EA;stroke:#000000;stroke-width:4;stroke-miterlimit:10;}
	.st7{fill:#080C0F;stroke:#000000;stroke-miterlimit:10;}
	.st8{stroke:#050505;stroke-miterlimit:10;}
	.st9{stroke:#050505;stroke-width:0.25;stroke-miterlimit:10;}
	.st10{fill:none;stroke:#050505;stroke-miterlimit:10;}
	.st11{fill:#010105;}
</style>
<g id="Calque_6">
	<path class="st0" d="M638.6,210.6c0,0-115.8,25.4-125.4,45.7c-9.6,20.3-31.6,49.5-31.9,83.7c-0.2,34.1-1.7,94.3,4.2,106.1
		c5.8,11.8,11,62.2,10.2,67.6c-0.7,5.4,35.8,133.8,29.1,142c-6.7,8.3-17.8,121.9,0,133.2c17.8,11.3,90.6,107.7,95.4,111.2
		c4.8,3.5,87.4,0,87.4,0l54.8-52.9c0,0,42.2-99.5,45.4-111.5c3.2-12-13.7-91.5-13.7-91.5l-2.8-66.9c0,0,31.9-129.1,29.8-166.3
		s-27-107.9-27-107.9s-89-82.7-108.1-85.3C667,215,638.6,210.6,638.6,210.6z"/>
	<circle class="st1" cx="576.3" cy="412.5" r="11.2"/>
	<circle class="st1" cx="724.5" cy="412.5" r="11.2"/>
</g>
<g id="Calque_4">
	<path class="st2" d="M690.8,532.9c-6.2-1.7-64.5-6.4-80.2-3.1c-15.7,3.4-20.2,4.8-25.5,1.1c-5.3-3.6-7.3-5.6-7.3-3.4v7.8
		c0,0,8.4,2.8,13.5,3.6c2,3.1,23.8,29.4,35.6,35.6c13.5,6.2,36.7-0.3,42.9-3.1c6.2-2.8,22.7-15.9,26.9-26.9
		c5-6.7,13.7-10.9,15.1-11.8C713.2,532,697,534.6,690.8,532.9z M633.3,572.7c-5.3,0-12.6-6.4-14.3-10.4c-2.2-3.3,51,0.8,53.2,3.4
		C660,574.6,638.7,572.7,633.3,572.7z M664.4,550c-5.6,3.1-28.9,0-38.4,0s-25.5-5.9-25.5-12.1c7.3-3.7,81.3-2,87.4,0
		C690.5,539.9,670.1,546.9,664.4,550z"/>
	<g>
		<path class="st3" d="M703.3,500.1c1.4,1.3,2.8,2.7,4.2,4.1l4.1,4.1c1.4,1.4,2.7,2.8,4,4.2c1.3,1.4,2.7,2.8,4,4.2l0.1,0.1l0,0.1
			c0.8,3.7,1.6,7.3,2.4,11c0.8,3.7,1.5,7.3,2.1,11c-1-3.6-1.9-7.2-2.8-10.9c-0.9-3.6-1.7-7.3-2.6-10.9l0.1,0.2
			c-1.3-1.4-2.6-2.8-4-4.2c-1.3-1.4-2.6-2.8-3.9-4.3l-3.9-4.3C705.9,503,704.6,501.6,703.3,500.1z"/>
	</g>
	<g>
		<path d="M587,543.9c3.9,6.3,8,12.4,12.3,18.3c4.4,5.9,9,11.7,14.4,16.4c1.4,1.2,2.8,2.3,4.3,3.2c1.5,0.9,3.1,1.7,4.8,2.2
			c3.4,1.1,7,1.7,10.6,1.9c3.6,0.2,7.3,0.1,10.9-0.2c3.7-0.3,7.3-0.8,10.9-1.5c-7,2.2-14.4,3.5-21.9,3.4c-3.7-0.1-7.5-0.5-11.2-1.7
			c-1.8-0.6-3.6-1.4-5.2-2.4c-1.6-1-3.1-2.2-4.6-3.4c-2.8-2.5-5.4-5.2-7.7-8.1c-2.4-2.9-4.6-5.9-6.6-9
			C593.9,557,590.3,550.5,587,543.9z"/>
	</g>
</g>
<g id="Calque_2">
	<path class="st4" d="M164.9,914.7c-5.4-29.4,8.5-90.9,27.8-113.2s44.5-37.6,69.3-52.7c10.7-6.5,10.1-6.1,20.8-12.6l0,0
		c0.3-5.4,5.2-9.5,9.9-12.8c8.5-6.1,17.3-12,27.5-15.3c10.1-3.3,21.8-3.7,31.3,0.8c2.6,1.3,5.3,0,8.2-0.1l0,0
		c8.6-1.7,8.5-2.1,15.3-7.6c4.2-3.4,7.8-7.4,11.8-11c8.1-7.4,17.7-13.2,28.1-16.9c5-1.8,10.5-3.2,15.8-2.1l-28,32.3
		c2.2-7.8,8.9-13.5,14.8-19c7.3-6.9,14.7-13.8,23.4-18.7c5.9-3.4,12.4-5.7,18.4-9c7.5-4.1,14.2-9.5,21.8-13.4
		c7.6-3.9,16.5-6.3,24.7-3.7l-5.4-0.8c4.9-8,12.1-14.6,20.4-18.9l10.3,10.4c-2.4,13.8-2.1,28.1,0.8,41.7c4.6,21.3,23,65.8,34.2,79.4
		c24.1,29.2,71.3,108.1,82.4,132.2c12.9,28,45.5,18,51.3,13.5c33.5-25.6,44.1-74.3,50.7-94.3c3.9-11.9,27-63.7,32.9-86.2
		c3.6-13.8,3.3-36.3,1.9-50.6c-0.3-3.1-4.3-19.4-5.3-21.9c-2.4-5.8-3-12.4-1.6-18.6l9.1-21.3c15.4,3.1,30.8,6.2,46.2,9.3
		c5.7,1.1,11.4,2.3,16.9,4.4c5.8,2.2,11.1,5.4,16.5,8.4c18.5,10.1,38.6,17.5,59.3,21.6c11.5,2.3,23.3,3.7,34.9,5.7
		c13.7,2.4,27.1,5.6,40.6,8.9c18.2,4.4,36.3,8.8,54.5,13.2c0.9,0.2,1.8,0.4,2.6,1c4.3,3.2-2.8,9.2-2.9,14.6
		c-0.1,4.8,5.2,7.5,9.6,9.4c13.4,5.9,25.4,15.8,31.8,28.9c6.1,12.4,6.8,26.7,10.8,39.9c3.4,11.1,9.2,21.5,17,30.2
		c3.5,4,7.5,7.7,10.3,12.2c2.2,3.6,3.6,7.7,5,11.8c5.7,16.8,11.5,33.6,17.2,50.4c3.9,11.4,8,27.2,16,36.3c0,0,12.3,22.4,12.3,32.4
		s-17,22-17,22s-975,16-982-5S153.8,934.4,164.9,914.7z"/>
	<g>
		<g>
			<path class="st2" d="M493.2,656.4c3.6,7.6,4.7,15.9,5,24.3c0.3,8.1,0.8,16.7-1.5,24.6c-0.5,1.9,2.4,2.7,2.9,0.8
				c2.5-8.7,2-18.2,1.5-27.1c-0.4-8.4-1.7-16.5-5.3-24.1C495,653.1,492.4,654.7,493.2,656.4L493.2,656.4z"/>
		</g>
	</g>
	<g>
		<g>
			<path class="st2" d="M479.7,701.4c2.6,18.8,0,38-7.6,55.4c-0.8,1.8,1.8,3.3,2.6,1.5c7.9-18.3,10.6-38,7.9-57.7
				C482.3,698.7,479.4,699.5,479.7,701.4L479.7,701.4z"/>
		</g>
	</g>
	<g>
		<g>
			<path class="st2" d="M435.9,722.2c-1.1,11.1-2,23.5,3.9,33.6c1.3,2.1,2.9,3.8,4.4,5.7c2.9,3.7,3.5,8.6,3.9,13.2
				c0.6,7.6-0.4,15.2-2.7,22.5c-0.6,1.8,2.3,2.6,2.9,0.8c2-6.4,3.1-13,3-19.7c-0.1-5.8-0.6-12.7-3.9-17.6c-1.9-2.7-4.2-4.8-5.7-7.8
				c-1.7-3.2-2.6-6.8-3.1-10.4c-0.9-6.8-0.3-13.6,0.3-20.4C439.1,720.3,436.1,720.3,435.9,722.2L435.9,722.2z"/>
		</g>
	</g>
	<g>
		<g>
			<path class="st2" d="M467.2,788.8c-0.1,20.1-9.5,38.1-15,57c-2.4,8.5-4.5,17.6-3.6,26.5c0.4,4,1.6,8.1,3.9,11.5
				c3.2,4.7,9.5,8.6,7.8,15.1c-0.5,1.9,2.4,2.7,2.9,0.8c2.6-9.6-8.2-14.7-10.6-22.9c-3-10.2,0.1-21.9,3-31.7
				c5.6-18.6,14.6-36.4,14.7-56.2C470.2,786.9,467.2,786.9,467.2,788.8L467.2,788.8z"/>
		</g>
	</g>
	<g>
		<g>
			<path class="st2" d="M351.8,721.8c11.6,12.7,22.9,25.8,33.9,39.1c5,6.1,9.7,12.4,15.6,17.8c5.4,5,11.5,9.5,13.8,16.8
				c0.6,1.8,3.5,1.1,2.9-0.8c-2-6.4-6.4-10.9-11.3-15.2c-6.1-5.5-11.2-11.4-16.4-17.7c-11.7-14.3-23.9-28.3-36.4-42
				C352.6,718.3,350.5,720.4,351.8,721.8L351.8,721.8z"/>
		</g>
	</g>
	<g>
		<g>
			<path class="st2" d="M415.1,809.6c-1.6,11.9,4.9,21.5,9.9,31.6c6.4,12.9,6.1,26.9,5.4,40.9c-0.1,1.9,2.9,1.9,3,0
				c0.6-11.9,1.2-24.2-2.9-35.6c-4.3-12-14.4-22.7-12.6-36.2C418.3,808.5,415.4,807.7,415.1,809.6L415.1,809.6z"/>
		</g>
	</g>
	<g>
		<g>
			<path class="st2" d="M280.1,750.7c12.2-0.9,24.6-1.8,36.6,0.9c5.2,1.2,10,3.3,14.9,5.2c5.8,2.2,15.3,2.8,17.3,9.7
				c0.5,1.8,3.4,1.1,2.9-0.8c-1.4-4.7-5.1-7.2-9.6-8.7c-6.5-2.2-12.9-4.7-19.4-6.8c-13.8-4.6-28.5-3.5-42.8-2.5
				C278.2,747.9,278.2,750.9,280.1,750.7L280.1,750.7z"/>
		</g>
	</g>
	<g>
		<g>
			<path class="st2" d="M339.5,777.3c5,0.6,8.3,6.1,11.2,9.6c3.3,4.1,6.5,8.3,9.7,12.5c5.9,8,11.5,16.1,16.8,24.5
				c5.1,8.1,9.9,16.4,14.5,24.9c4.5,8.4,12.5,19.7,9,29.5c-0.7,1.8,2.2,2.6,2.9,0.8c3.5-9.6-2.9-19.5-7.2-27.9
				c-5.4-10.4-11.2-20.5-17.5-30.4c-6.3-9.9-13-19.5-20.1-28.7c-4.8-6.3-10.5-16.9-19.1-17.9C337.6,774.1,337.6,777.1,339.5,777.3
				L339.5,777.3z"/>
		</g>
	</g>
	<g>
		<g>
			<path class="st2" d="M232.2,770c14.4,1.2,28-6.9,42.4-5.1c8,1,14.3,6,20.7,10.4c6.9,4.8,13.8,9.7,20.7,14.5
				c6.5,4.5,13.6,8.8,19.3,14.3c5.4,5.2,7.8,11.9,11.5,18.3c7.1,12.3,18,21.7,28.6,30.8c1.5,1.3,3.6-0.9,2.1-2.1
				c-11.8-10.1-23.3-20.5-30.5-34.5c-3.3-6.5-6.5-12.1-12.2-16.8c-6-5-12.6-9.2-19-13.6c-6.9-4.8-13.8-9.7-20.7-14.5
				c-6.2-4.3-12.3-8.7-20-9.7c-14.6-1.9-28.4,6.2-43,5C230.2,766.9,230.2,769.9,232.2,770L232.2,770z"/>
		</g>
	</g>
	<g>
		<g>
			<path class="st2" d="M313.7,820.9c-0.4,6.9,3.6,12.3,7.7,17.4c5.9,7.4,12,14.8,18,22.2c6,7.4,12,14.8,18,22.2
				c5.1,6.3,10.2,12.5,16.7,17.5c1.5,1.2,3-1.4,1.5-2.6c-6.3-4.8-11.1-10.9-16.1-17c-5.2-6.4-10.3-12.7-15.5-19.1
				s-10.3-12.7-15.5-19.1c-5-6.1-12.2-12.9-11.8-21.4C316.8,819,313.8,819,313.7,820.9L313.7,820.9z"/>
		</g>
	</g>
	<g>
		<g>
			<path class="st2" d="M248.1,792.7c12.5,2,21.9,10.3,29.8,19.7c9.1,10.7,17,22.5,25.3,33.8c8.3,11.4,16.4,23,25.2,34.1
				c8.2,10.2,18.9,15.9,30.6,21.2c1.7,0.8,3.3-1.8,1.5-2.6c-6.1-2.7-12.2-5.5-17.7-9.2c-6.2-4.2-10.9-9.6-15.3-15.5
				c-9.3-12.4-18.3-25-27.5-37.4c-13.1-17.8-27.1-43-51-46.8C247,789.5,246.2,792.4,248.1,792.7L248.1,792.7z"/>
		</g>
	</g>
	<g>
		<g>
			<path class="st2" d="M191.4,806.4c15.3-1.1,32.9-1.9,43.6,11c1.2,1.5,3.3-0.6,2.1-2.1c-11.3-13.6-29.7-13.1-45.8-11.9
				C189.4,803.5,189.4,806.5,191.4,806.4L191.4,806.4z"/>
		</g>
	</g>
	<g>
		<g>
			<path class="st2" d="M232,849.6c5.5-1.6,11.2-1.2,16.4,1.6c4.3,2.3,7.2,6.3,11,9.2c6.2,4.9,13.7,7.4,21.5,7.8
				c1.9,0.1,1.9-2.9,0-3c-5.6-0.3-10.9-1.7-15.7-4.5c-4.5-2.6-7.7-6.5-11.7-9.7c-6.3-5.1-14.4-6.5-22.2-4.3
				C229.3,847.3,230.1,850.2,232,849.6L232,849.6z"/>
		</g>
	</g>
	<g>
		<g>
			<path class="st2" d="M235.9,871.7c15-3.5,30.8,0.5,42.3,10.7c1.4,1.3,3.6-0.8,2.1-2.1c-12.4-11-29.2-15.2-45.2-11.4
				C233.2,869.3,234,872.2,235.9,871.7L235.9,871.7z"/>
		</g>
	</g>
	<g>
		<g>
			<path class="st2" d="M580.8,804.1c5.8,0,9.3,7.7,11.8,11.9c2.5,4.2,4.8,8.6,7.2,13c4.7,8.9,11.1,18.1,11,28.5c0,1.9,3,1.9,3,0
				c0-12.1-7.7-23.1-13.2-33.4c-3.2-5.9-6.3-12-10.4-17.3c-2.5-3.2-5.2-5.8-9.4-5.8C578.9,801.1,578.8,804.1,580.8,804.1
				L580.8,804.1z"/>
		</g>
	</g>
	<g>
		<g>
			<path class="st2" d="M714.6,909.4c9.7-1.9,15.3-11,20.7-18.5c6.7-9.4,12.8-19.3,15.3-30.7c0.4-1.9-2.5-2.7-2.9-0.8
				c-2.2,10.1-7.2,18.9-13,27.2c-5.2,7.6-11.1,18-20.8,19.9C711.9,906.9,712.7,909.8,714.6,909.4L714.6,909.4z"/>
		</g>
	</g>
	<g>
		<g>
			<path class="st2" d="M813.3,671.3c5.3-1.4,7.6,9.6,8.8,12.9c1.5,4.1,3,8.3,4.4,12.5c2.8,8.6,5.3,17.4,7,26.3
				c1.7,9,2.7,18.2,2.5,27.4c-0.2,8.8-1.7,17.4-2.8,26.1c-2.4,18-1.3,36.1-0.1,54.2c0.5,7.6,1.1,15.3,3.2,22.6
				c2.4,8.2,8.4,15.4,8.9,24c0.1,1.9,3.1,1.9,3,0c-0.5-8.6-5.8-15.3-8.5-23.2c-3.1-9.4-3.4-19.5-4-29.2c-0.7-10.4-1.3-20.7-1-31.1
				c0.3-9.9,1.8-19.6,3.1-29.4c2.5-19.2,0.2-38.2-4.9-56.8c-2.7-9.7-6-19.2-9.6-28.6c-1.8-4.8-4.4-12.3-10.9-10.6
				C810.6,668.9,811.4,671.8,813.3,671.3L813.3,671.3z"/>
		</g>
	</g>
	<g>
		<g>
			<path class="st2" d="M890.7,664.2c10.2,1.8,20.2,0.7,29.8-3.2c1.8-0.7,1-3.6-0.8-2.9c-9,3.7-18.5,4.9-28.2,3.2
				C889.6,660.9,888.8,663.8,890.7,664.2L890.7,664.2z"/>
		</g>
	</g>
	<g>
		<g>
			<path class="st2" d="M928.6,701.9c-6.9,4.1-14.1,8.4-18.8,15c-5.7,8.1-6.3,19.4-8.1,28.8c-0.4,1.9,2.5,2.7,2.9,0.8
				c1.7-8.6,2.2-19.4,7-26.9c4.4-6.8,11.7-11.1,18.5-15.1C931.7,703.5,930.2,701,928.6,701.9L928.6,701.9z"/>
		</g>
	</g>
	<g>
		<g>
			<path class="st2" d="M962.2,662.8c-7,12.9-14.1,26.1-17,40.6c-1.4,7-1.3,14-1.5,21c-0.3,9.2-2.9,16.6-6.4,25
				c-6,14.5-10.2,29.8-14.8,44.7c-5,15.9-10.2,31.7-14.7,47.8c-4.7,16.7-7.9,33.9-5.2,51.3c0.3,1.9,3.2,1.1,2.9-0.8
				c-3.2-20.7,2.4-41.1,8.5-60.7c6.1-19.8,12.3-39.5,18.5-59.3c2.9-9.1,6.1-18,9.8-26.8c3.5-8.5,4.5-16.7,4.7-25.8
				c0.2-9.9,1.5-19.2,4.9-28.5c3.4-9.4,8.3-18.3,13-27.1C965.7,662.7,963.1,661.1,962.2,662.8L962.2,662.8z"/>
		</g>
	</g>
	<g>
		<g>
			<path class="st2" d="M1045.4,689.2c-25.9,11.8-47.3,31.3-61.8,55.7c-7.8,13.2-13.5,27.4-18.4,41.8c-5.4,15.9-11.1,31.9-14.1,48.5
				c-3.3,18.1-2.5,36.8-6.8,54.8c-0.4,1.9,2.4,2.7,2.9,0.8c4.7-19.5,3.6-39.9,7.8-59.5c4.2-19.6,11-39.2,18.2-57.9
				c13.9-35.8,38.5-65.6,73.8-81.7C1048.7,691,1047.1,688.4,1045.4,689.2L1045.4,689.2z"/>
		</g>
	</g>
	<g>
		<g>
			<path class="st2" d="M943.3,766.8c-0.7,19.3-3.3,38.5-7.7,57.3c1,0.1,2,0.3,2.9,0.4c1.8-23.7,15.6-43.6,25.5-64.5
				c4.9-10.3,7.4-22,13.5-31.6c6.6-10.3,17-17.5,26.9-24.3c1.6-1.1,0.1-3.7-1.5-2.6c-9.5,6.6-19.3,13.3-26.2,22.7
				c-7.4,10.1-10,23-15.3,34.2c-10.1,21.4-24.1,41.7-25.9,66c-0.1,1.7,2.6,2,2.9,0.4c4.5-19.1,7.1-38.5,7.8-58.1
				C946.4,764.9,943.4,764.9,943.3,766.8L943.3,766.8z"/>
		</g>
	</g>
	<g>
		<g>
			<path class="st2" d="M1035.6,747.8c-5.3,10.3-15.5,17-21.9,26.5c-7.6,11.2-13.1,24-18.6,36.3c-11,24.8-20.1,50.5-27,76.8
				c-0.5,1.9,2.4,2.7,2.9,0.8c7.1-26.6,16.2-52.6,27.5-77.7c5.3-11.7,10.6-23.9,17.8-34.6c6.5-9.5,16.6-16.1,21.9-26.5
				C1039,747.6,1036.4,746.1,1035.6,747.8L1035.6,747.8z"/>
		</g>
	</g>
	<g>
		<g>
			<path class="st2" d="M969.8,896.6c5.6-14.2,15-24.9,26.9-34.1c5-3.9,9-8,12.1-13.5c3.6-6.4,6.8-12.8,10.9-18.9
				c8.5-12.8,18.8-24.5,28.8-36.2c10.8-12.6,21.6-25.2,32.4-37.8c1.2-1.5-0.9-3.6-2.1-2.1c-11.2,13.1-22.4,26.2-33.7,39.4
				c-9.7,11.4-19.7,22.7-28,35.3c-4.2,6.3-7.4,13.1-11.3,19.7c-4.1,6.9-10,11-16.1,16c-10.3,8.4-17.9,19.3-22.8,31.7
				C966.2,897.6,969.1,898.3,969.8,896.6L969.8,896.6z"/>
		</g>
	</g>
	<g>
		<g>
			<path class="st2" d="M1053.4,815.8c8.2-0.6,15.8-4.4,23.6-6.8c8.9-2.7,18-4.7,27.2-6c1.9-0.3,1.1-3.2-0.8-2.9
				c-8.6,1.2-17.1,3-25.4,5.4c-8.1,2.4-16.1,6.7-24.5,7.2C1051.5,812.9,1051.5,815.9,1053.4,815.8L1053.4,815.8z"/>
		</g>
	</g>
	<g>
		<g>
			<path class="st2" d="M1068.3,825c-12,6.8-13.1,21-18.2,32.4c-3.5,7.8-9.9,13-16,18.7c-6.5,6-13,12-19.5,18
				c-1.4,1.3,0.7,3.4,2.1,2.1c6.3-5.8,12.5-11.6,18.8-17.4c5.1-4.7,10.7-9.2,14.5-15c7.5-11.5,6.6-28.9,19.7-36.3
				C1071.5,826.7,1070,824.1,1068.3,825L1068.3,825z"/>
		</g>
	</g>
	<g>
		<g>
			<path class="st2" d="M1074,848.1c10.6-1.2,20.5-4.5,29.6-10.2c1.6-1,0.1-3.6-1.5-2.6c-8.6,5.4-18,8.7-28.1,9.8
				C1072.1,845.3,1072.1,848.3,1074,848.1L1074,848.1z"/>
		</g>
	</g>
	<g>
		<g>
			<path class="st2" d="M1049.7,882.9c14.3-1.3,27.4-6.7,38.4-15.9c1.5-1.2-0.6-3.4-2.1-2.1c-10.3,8.6-22.9,13.8-36.3,15
				C1047.7,880.1,1047.7,883.1,1049.7,882.9L1049.7,882.9z"/>
		</g>
	</g>
	<g>
		<g>
			<path class="st2" d="M1046.6,896.4c10.3,0.6,20.3-0.9,30-4.4c1.8-0.7,1-3.6-0.8-2.9c-9.4,3.4-19.2,4.8-29.2,4.3
				C1044.7,893.3,1044.7,896.3,1046.6,896.4L1046.6,896.4z"/>
		</g>
	</g>
	<g>
		<g>
			<path class="st2" d="M1093.6,910.3c-1.2-7.9-2.5-17.3,3.4-23.7c2.7-2.9,6.3-5,9.5-7.4c3.2-2.5,6.3-5.1,9.3-7.8
				c9.6-8.9,17.9-19.5,19.6-32.9c0.2-1.9-2.8-1.9-3,0c-2.2,17.1-16.8,30.3-30,40c-5,3.7-9.8,7-11.8,13.2c-2,6.3-1,13.1,0,19.4
				C1091,913,1093.9,912.2,1093.6,910.3L1093.6,910.3z"/>
		</g>
	</g>
</g>
<g id="Calque_3">
	<g>
		<g>
			<path d="M501.8,325.9l16.9-16.8c5.6-5.6,11.2-11.3,16.8-17c5.6-5.7,11-11.5,16.4-17.3l4-4.4c1.3-1.5,2.6-3,3.9-4.5
				c1.3-1.5,2.5-3.1,3.7-4.6l0.9-1.2l0.8-1.2l1.7-2.5c-4,6.9-9.3,13-14.5,19c-5.3,6-10.8,11.8-16.3,17.5c-5.6,5.7-11.2,11.3-17,16.8
				C513.6,315.1,507.8,320.6,501.8,325.9z"/>
		</g>
		<g>
			<path d="M494.1,340l7.5-6.8l7.5-6.8c5-4.5,10-9,15-13.6c5-4.5,10-9.1,14.9-13.7c2.5-2.3,4.9-4.6,7.3-7l1.8-1.8l1.8-1.8
				c1.2-1.2,2.3-2.5,3.4-3.8c-4.1,5.4-8.9,10.1-13.7,14.9c-4.8,4.7-9.8,9.3-14.8,13.8c-5,4.5-10.1,9-15.2,13.4
				C504.4,331.4,499.3,335.7,494.1,340z"/>
		</g>
		<g>
			<path d="M639,231.7c2.2,3,4.3,6.1,6.4,9.2c1,1.6,2,3.1,3,4.7c1,1.6,2,3.2,2.8,4.8c-0.9-1.6-2-3.2-3-4.7c-1.1-1.5-2.1-3.1-3.2-4.6
				c-2.2-3-4.5-6-6.8-8.9L639,231.7z"/>
		</g>
		<g>
			<polygon points="645.3,234.8 651.2,244 644.5,235.4 			"/>
		</g>
		<g>
			<polygon points="789,312.5 785.3,340 788,312.4 			"/>
		</g>
		<g>
			<polygon points="794.7,317.8 791.3,359.2 793.7,317.7 			"/>
		</g>
		<path class="st5" d="M874.3,256.3"/>
	</g>
	<g>
		<path class="st6" d="M470.5,419.2c-3.4,2-12.4,1.9-13.8,7.4c-4.8,18.5-6.4,55.4,7.6,81.5c2.6,19.3,10.3,30.9,21.9,28.3
			c9.2-15.6-1-39.3,4-55.7S488.2,414.1,470.5,419.2z"/>
		<g>
			<path d="M461.6,463.2c2-17.8,3.6-23.8,10.9-27.9c2.3,5.9,12.7,25.9,12.9,27.9c0.2,2.1,0,32.5,0,32.5s-2.2-28.6-5.4-33.5
				c-3.1-4.9-9.6-14.3-9.6-14.3C465,461.5,461.6,463.2,461.6,463.2z"/>
			<path d="M470.5,458c0,0-10.7,15-7.2,25.5c3.5,10.5,11.9,17.1,11.9,17.1c-5.9-10.1-8.2-10.4-4.8-22.5S475.5,462.9,470.5,458z"/>
			<path d="M479,477.8c-2.4,8.5-3.8,12,0,15.9c3.8,3.8,1.7,4.9,1.7,8.7C478,499.2,469.6,489.5,479,477.8z"/>
			<path d="M470.5,511.8c7.9,0,14.3-1.1,11.9,7.7C479.4,514.9,473.8,511.4,470.5,511.8z"/>
		</g>
	</g>
	<g>
		<path class="st6" d="M827,414.9c15.9,2.3,18.7,0.8,19.6,7.6c0.9,6.8,1.4,48.6,0,55.3c-1.4,6.8-5.2,30.4-9.4,37.9
			c-8.7,14.3-24,28.2-28.4,29.4c-3.1-3.3,6.1-33.2,5.3-42.7c-0.8-9.5-8.1-54-5.9-59.8C810.4,436.8,830.8,414.1,827,414.9z"/>
		<path class="st7" d="M821.7,510.4c-1.2,5.9-0.2,7.3,1.4,6.3l10.2-9.8C826.3,508.7,825.7,510.4,821.7,510.4z"/>
		<path d="M827.2,450.6c-3.6,7.9-6.1,16.9-6.1,16.9l-1.6,27.8c-0.3-9.8-4.1-30.6-3.8-33.8c0.3-3.3,9.2-32.2,12-31.8
			c2.8,0.4,12,5.9,12.9,29.1c-7.6-12.6-9.8-16.2-9.8-16.2l6,19.9"/>
		<path d="M827.2,459.6c-3.6,7.4,0.2,17.7,3.8,27.8c-6.8,10.1-8.5,16.6-8.5,11.5s0-10.4,0-10.4l5.6-2.2
			C828.1,486.3,822.6,465.3,827.2,459.6z"/>
		<path d="M840.5,466.7c-6,10.9-9.6,16.4-9.6,16.4l2.3,1.9L840.5,466.7z"/>
	</g>
	<g>
		<path class="st3" d="M616,499.4c-2.1-1.4-4.2-3-6-4.9c-1.7-1.9-3.3-4.2-3.6-7c-0.2-1.4,0-2.8,0.5-4.1c0.5-1.3,1.2-2.5,2.1-3.5
			c1.7-2.1,4-3.6,6.3-4.9l-0.5,0.7c0.2-1.6,0.9-3,1.5-4.2c0.7-1.3,1.4-2.5,2.2-3.7c1.5-2.4,3-4.7,4.4-7.1c0.7-1.2,1.3-2.4,1.9-3.7
			l1.7-3.8l3.4-7.7l-0.1,0.4l-0.5-7.8l-0.5-7.8c-0.2-2.6-0.3-5.2-0.4-7.8s-0.3-5.2-0.3-7.8c0.4,2.6,0.7,5.1,1,7.7
			c0.3,2.6,0.6,5.1,0.9,7.7l0.8,7.7l0.8,7.7l0,0.2l-0.1,0.2l-3.3,7.8l-1.7,3.9c-0.6,1.3-1.3,2.6-1.9,3.8c-1.4,2.5-3,4.8-4.5,7.2
			c-0.8,1.2-1.5,2.3-2.1,3.5c-0.6,1.2-1.2,2.4-1.4,3.6l-0.1,0.5l-0.4,0.2c-2.2,1.1-4.3,2.5-5.9,4.3c-1.6,1.8-2.7,4.1-2.5,6.4
			c0.2,2.4,1.4,4.7,2.9,6.7C612.1,496.1,614,497.8,616,499.4z"/>
	</g>
	<g>
		<path class="st3" d="M621.2,499.4c1.6,1.6,3.2,3.2,5,4.5c0.8,0.7,1.8,1.3,2.7,1.9c1,0.6,1.9,1.1,2.9,1.6c3.9,1.9,8.2,2.6,12.5,2.4
			l1.6,0l0.8,0l0.4,0l0.3,0c0.9-0.1,1.9-0.4,2.9-0.7c2-0.7,3.9-1.7,5.9-2.7c3.9-2.1,7.6-4.6,11.3-7.1l1.2-0.9l1.2,0.9
			c0.4,0.3,1,0.7,1.6,1c0.6,0.3,1.2,0.6,1.8,0.8c1.2,0.4,2.4,0.6,3.6,0.5c1.1-0.1,2.2-0.6,3.2-1.3c1-0.8,1.8-1.7,2.3-2.9
			c1-2.3,0.9-5.3,0.3-8.1c-0.6-2.9-1.6-5.7-2.8-8.5c2,2.3,3.5,5,4.7,7.9c0.6,1.5,1,3,1.2,4.6c0.2,1.6,0.1,3.4-0.4,5
			c-0.5,1.7-1.6,3.3-2.9,4.4c-1.3,1.2-3.1,2.1-4.9,2.4c-1.9,0.3-3.7,0-5.3-0.5c-0.8-0.3-1.6-0.6-2.4-1c-0.8-0.4-1.4-0.8-2.2-1.4
			l2.4,0.1c-1.9,1.4-3.8,2.6-5.7,3.8c-2,1.2-3.9,2.4-6,3.4c-2.1,1.1-4.2,2.1-6.5,2.8c-1.2,0.4-2.4,0.7-3.7,0.8l-0.5,0l-0.4,0l-0.9,0
			l-1.7,0c-2.3-0.1-4.7-0.4-7-1c-2.3-0.6-4.5-1.6-6.5-2.9C626.7,506.8,623.6,503.2,621.2,499.4z"/>
	</g>
	<path class="st8" d="M627.3,408.1c0,0-37.3-21.1-60.7-24.5c10.2,3.4,43,12.8,47.3,21.5c-13-0.4-13-0.4-13-0.4l18.9,8.3
		c0,0-1.5-4.1,1.1-4.1C623.6,408.9,625.1,406.2,627.3,408.1z"/>
	<g>
		<path class="st3" d="M622,394.2c-5.9-1.9-11.9-3.8-17.9-5.7c-6-1.9-11.9-3.7-17.9-5.5c-1.5-0.4-3-0.8-4.5-1.2
			c-0.8-0.2-1.5-0.4-2.3-0.5c-0.4-0.1-0.7-0.1-1.1-0.2c-0.3-0.1-0.7-0.1-1.1,0c-3.1,0.2-6.2,0.6-9.3,0.9c-6.2,0.6-12.4,1.2-18.7,1.7
			l0-0.1c6.2-1,12.4-1.8,18.6-2.6c3.1-0.3,6.2-0.7,9.4-0.9c0.4,0,0.8,0,1.2,0.1c0.4,0.1,0.8,0.1,1.2,0.2c0.8,0.2,1.5,0.4,2.3,0.6
			c1.5,0.4,3,0.9,4.5,1.3C598.4,386,610.2,390,622,394.2L622,394.2z"/>
	</g>
	<path class="st8" d="M626.3,407.5c-3.8-6-8.3-9.2-8.3-9.2s-50-17.3-55.2-13.6c5.4,1.1,42.7,7.8,48.3,20.3
		c-7.3-0.2-10.1-0.3-10.1-0.3l18.9,8.3C619.8,413,618,407.5,626.3,407.5z"/>
	<g>
		<path class="st3" d="M587.8,394.2l-14.8-0.9c-4.9-0.3-9.9-0.7-14.8-0.7c-0.6,0-1.2,0-1.8,0l-0.9,0l-0.8,0.1
			c-1.1,0.3-2.2,0.9-3.3,1.5c-2.2,1.2-4.3,2.5-6.4,3.8c-2.1,1.3-4.2,2.6-6.3,3.9l-6.3,4c4-3,8-5.8,12.1-8.6c2.1-1.4,4.2-2.7,6.4-3.9
			c1.1-0.6,2.2-1.2,3.5-1.6l1-0.2l0.9-0.1c0.6,0,1.3,0,1.9,0c2.5,0,5,0.2,7.4,0.3c2.5,0.2,4.9,0.3,7.4,0.6
			C578,392.9,582.9,393.5,587.8,394.2z"/>
	</g>
	<g>
		<path class="st3" d="M576.8,389.1c-3.9-0.1-7.9-0.3-11.8-0.5c-3.9-0.2-7.9-0.5-11.8-0.7l0.3-0.1c-1.7,1.3-3.5,2.5-5.2,3.8
			c-1.7,1.2-3.5,2.5-5.2,3.8l-5.3,3.7c-1.8,1.2-3.6,2.4-5.4,3.6c1.7-1.4,3.4-2.7,5.1-4l5.1-3.9c1.7-1.3,3.4-2.6,5.2-3.9
			c1.7-1.3,3.4-2.6,5.2-3.8l0.2-0.1l0.2,0c3.9,0.3,7.9,0.6,11.8,1C568.9,388.2,572.9,388.6,576.8,389.1z"/>
	</g>
	<g>
		<path class="st3" d="M532.3,398.3c2.5-2.1,5-4.2,7.6-6.3c1.3-1,2.5-2.1,3.8-3.1c1.3-0.9,2.7-1.9,4.2-2.7l0.1,0.1
			c-1.1,1.2-2.4,2.3-3.6,3.4c-1.3,1.1-2.6,2-4,2.9C537.8,394.5,535.1,396.4,532.3,398.3L532.3,398.3z"/>
	</g>
	<path class="st9" d="M533.7,409.1h5.6c0,0,15.9-12.1,19.6-11.9c3.8,0.2,23-4.8,40.7,7.5c-9.2,3.6-11.3,3.3-7.5,5.6
		c3.8,2.3,16.9,7.9,11.7,9c-5.2,1-30.9,3.8-35.5,2.7c-4.6-1-20.5-6.3-19-7.2s12.8-10.3,15.7-10.3c0.6,0,1.7,0,3.2,0
		c5.8,0,16.8,0.2,18.8,2.6c2.1-1.3-2.9-4.8-6.1-4.5s-14-1.8-20.8,2c-6.8,3.8-23.4,10.7-19.9,12.1c6,1.5,9.1-0.2,9.1-0.2
		s13.6,7.3,15.9,7.3s29.3-0.6,31.8-1.7c2.5-1,9.4-1.7,10-3.1c0.6-1.5,4.2-5.2,1.5-5.9c-2.7-0.7-10-2.2-8.6-4.1
		c1.5-1.9,14-0.2,3.3-5.4c-10.7-5.2-10.4-10.4-45.9-7.1C543.9,403.5,534.9,406.2,533.7,409.1z"/>
	<path class="st1" d="M587.8,405.9c-2.1-1.7-13.8-5.8-18.4-4.4c0,0-5.4,5.4-5.5,7.1c-0.2,1.7-1.9,7,0.6,9.5c2.5,2.5,3.4,4.4,7,4.9
		c3.6,0.5,13.1-0.5,15.3-3.2c2.2-2.7,2.4-9,2.4-10.3C589.2,408.3,589.9,407.6,587.8,405.9z M585.7,418.1c-1.2,5.4-14.1,4.9-16.5,3.5
		c-2.4-1.4-3.7-9.8-2.6-11c1.1-1.2,4.9,0,4.9,0s-0.4,2.8,2,4.2c2.4,1.4,3.3-0.5,6.3-1.8c3.1-1.3,0.7-4.8,0.7-4.8h-12.2
		c0,0,0.1,0.1,2.1-2.4c3.8-4.7,13.3-2,15.2,0.4C587.5,408.6,586.9,412.7,585.7,418.1z"/>
	<g>
		<path class="st3" d="M524.8,398.3c-1.1,1.8-2.3,3.5-3.6,5.2c-1.3,1.7-2.6,3.3-4,4.9l0.1-0.2c-0.6,2.5-1.2,5-1.9,7.5
			c-0.7,2.5-1.4,5-2.2,7.4c0.4-2.6,0.9-5.1,1.4-7.6c0.5-2.5,1.1-5,1.8-7.5l0-0.1l0.1-0.1l4.2-4.7C522,401.5,523.4,399.9,524.8,398.3
			z"/>
	</g>
	<g>
		<path class="st3" d="M540.2,438.9c5.7-0.7,11.5-1.3,17.3-1.8l8.6-0.8c2.9-0.3,5.8-0.5,8.7-0.7l-0.2,0l5.6-2.6
			c1.9-0.9,3.7-1.7,5.6-2.5c1.9-0.8,3.7-1.7,5.6-2.5c1.9-0.8,3.7-1.6,5.6-2.4c-1.8,1-3.6,1.9-5.5,2.8c-1.8,0.9-3.7,1.8-5.5,2.7
			c-1.8,0.9-3.7,1.8-5.5,2.7l-5.5,2.6l-0.1,0l-0.1,0c-2.9,0.3-5.8,0.5-8.7,0.7l-8.7,0.7C551.7,438.3,545.9,438.7,540.2,438.9z"/>
	</g>
	<g>
		<path class="st3" d="M549.3,432.3c2.3,0.4,4.6,0.9,6.9,1.4l6.9,1.5c2.3,0.5,4.6,1.1,6.9,1.6l6.9,1.6l-0.3,0l6.3-2.9
			c2.1-1,4.2-2,6.3-2.9c4.2-1.9,8.5-3.8,12.8-5.6c-4.1,2.2-8.3,4.2-12.4,6.3c-2.1,1-4.2,2-6.3,3l-6.3,3l-0.2,0.1l-0.2,0l-6.9-1.7
			c-2.3-0.6-4.6-1.1-6.9-1.7l-6.8-1.8C553.8,433.6,551.5,433,549.3,432.3z"/>
	</g>
	<path class="st8" d="M519,392.3l21.2-13.9c0,0,26.9-1,36.6,0c9.7,1,35.9,10,41.2,11.5c1.8-12.5,0-13,0-13l-38-12.2l5.7,4.2l-45.5,1
		l-14.3,12.7l-2.3,2.8L519,392.3z"/>
	<g>
		<path class="st3" d="M549.3,529.9c4.5-2.5,9-5,13.6-7.4c4.5-2.5,9.1-4.8,13.7-7.3l-0.1,0.1c4.2-5.1,8.4-10.2,12.6-15.3
			c4.3-5,8.5-10.1,12.9-15.1c-4,5.3-8.1,10.4-12.3,15.6c-4.2,5.1-8.3,10.3-12.5,15.4l-0.1,0.1l-0.1,0c-4.6,2.3-9.2,4.7-13.8,7
			C558.6,525.4,553.9,527.7,549.3,529.9z"/>
	</g>
	<g>
		<path class="st3" d="M562.8,519.5c2.1-1.4,4.2-2.7,6.3-4.1l6.3-4l-0.1,0.1c2.4-3.3,4.9-6.5,7.3-9.8c2.4-3.3,4.9-6.5,7.4-9.7
			l3.7-4.9l3.8-4.8c2.5-3.2,5.1-6.4,7.7-9.6c-2.3,3.3-4.7,6.7-7.1,10l-3.6,4.9l-3.7,4.9c-2.4,3.3-4.9,6.5-7.4,9.8
			c-2.5,3.2-4.9,6.5-7.5,9.7l0,0.1l-0.1,0l-6.5,3.8C567.1,517,565,518.3,562.8,519.5z"/>
	</g>
	<polygon class="st8" points="665.8,411.4 662,451.6 671.6,465.5 666.2,451 	"/>
	<g>
		<polygon class="st3" points="664.3,445.7 670.9,453.1 663.6,446.4 		"/>
	</g>
	<g>
		<polygon class="st3" points="664.3,443.3 670.9,450.8 663.6,444 		"/>
	</g>
	<g>
		<polygon class="st3" points="664.3,441 670.9,448.4 663.6,441.7 		"/>
	</g>
	<path class="st10" d="M664,441.5"/>
	<g>
		<polygon class="st3" points="630.8,444.1 620.3,450.8 630.3,443.3 		"/>
	</g>
	<g>
		<polygon class="st3" points="630.8,441.7 620.3,448.4 630.3,440.9 		"/>
	</g>
	<g>
		<polygon class="st3" points="630.8,439.4 622,444.9 630.3,438.6 		"/>
	</g>
	<g>
		<polygon class="st3" points="630.8,437 622.7,441.5 630.3,436.2 		"/>
	</g>
	<g>
		<polygon points="497.5,475.8 501.8,524.2 496.5,475.9 		"/>
	</g>
	<g>
		<polygon points="496.2,485 511.5,513.6 495.3,485.5 		"/>
	</g>
	<g>
		<polygon points="496.2,485 511.5,513.6 495.3,485.5 		"/>
	</g>
	<g>
		<polygon points="493.8,485 509.1,513.6 492.9,485.5 		"/>
	</g>
	<g>
		<polygon points="493.8,487.4 509.1,516 492.9,487.9 		"/>
	</g>
	<g>
		<polygon points="749.7,549.6 739.1,532 750.6,549.1 		"/>
	</g>
	<g>
		<polygon points="754.4,549.6 743.8,532 755.3,549.1 		"/>
	</g>
	<g>
		<path class="st3" d="M670.9,418.7c5.4,5.3,10.8,10.7,16.1,16.1l7.9,8.2c2.6,2.7,5.3,5.4,7.9,8.2l-0.2-0.1
			c5.8,2.3,11.6,4.4,17.3,6.8c5.8,2.3,11.5,4.6,17.2,7c-5.9-2-11.7-4.2-17.5-6.3c-5.8-2.1-11.6-4.4-17.4-6.5l-0.1,0l-0.1-0.1
			c-2.7-2.7-5.3-5.5-7.9-8.2l-7.9-8.2C681.2,429.9,676,424.3,670.9,418.7z"/>
	</g>
	<g>
		<path class="st3" d="M699.2,426.3c3.6,1.5,7.1,3.1,10.7,4.8c3.5,1.7,7,3.4,10.5,5.1l-0.2,0c2.5,0.2,5.1,0.5,7.6,0.7
			c2.5,0.3,5.1,0.6,7.6,0.9c-2.5,0-5.1-0.1-7.6-0.3c-2.5-0.1-5.1-0.3-7.6-0.4l-0.1,0l-0.1,0c-3.5-1.7-7-3.4-10.4-5.2
			C706,430.1,702.6,428.3,699.2,426.3z"/>
	</g>
	<g>
		<path class="st3" d="M698.3,420.5c3.7,2.2,7.4,4.5,11.1,6.8l5.5,3.4l5.5,3.5l-0.2-0.1c4.9,0.1,9.8,0.3,14.8,0.5l7.4,0.3l7.4,0.4
			l0,0l0,0c2,0.4,4,0.8,6.1,1.3c2,0.4,4,0.9,6,1.4c-2-0.3-4.1-0.7-6.1-1c-2-0.3-4.1-0.7-6.1-1.1l0,0l-7.4-0.2l-7.4-0.2
			c-4.9-0.1-9.8-0.3-14.8-0.6l-0.1,0l-0.1-0.1l-5.4-3.6l-5.4-3.6C705.4,425.4,701.9,423,698.3,420.5z"/>
	</g>
	<polygon class="st8" points="684.3,426.3 668.1,405.9 672.4,391.1 713,379.5 747.2,384.7 713.2,382.7 675.7,393.8 673.9,406.2 	"/>
	<g>
		<polygon class="st3" points="673.8,396.6 713.9,384.9 713.9,384.8 713.9,384.8 735.3,385 713.9,385.2 714,385.2 674.1,397.6 		"/>
	</g>
	<g>
		<polygon class="st3" points="673.8,401 714,388.9 714.1,388.9 714.1,388.9 740.9,386.9 714.1,389.3 714.2,389.3 674.1,402 		"/>
	</g>
	<g>
		<polygon class="st3" points="671.4,404.8 714,388.9 714.1,388.9 714.1,388.9 738.7,388.2 714.1,389.3 714.2,389.3 671.7,405.7 		
			"/>
	</g>
	<g>
		<polygon class="st3" points="672.8,407.9 699.2,398.7 673.2,408.9 		"/>
	</g>
	<g>
		<polygon class="st3" points="675,410.4 694.3,403.5 675.4,411.4 		"/>
	</g>
	<g>
		<path class="st3" d="M701.3,399.4c4.9-2.3,9.9-4.4,14.9-6.5l0.1,0l0.1,0c4.1,0.6,8.2,1.3,12.3,2c2.1,0.4,4.1,0.7,6.1,1.1
			c1,0.2,2,0.4,3.1,0.7c0.6,0.3,1,0.6,1.4,0.9l1.3,0.9c1.7,1.2,3.4,2.5,5,3.7l4.9,3.8c3.3,2.5,6.5,5.1,9.8,7.8
			c-3.4-2.4-6.8-4.8-10.1-7.3l-10.1-7.3l-1.3-0.9c-0.4-0.3-0.9-0.6-1.2-0.8c-0.9-0.2-2-0.4-3-0.6l-6.1-1.1l-12.3-2.2l0.2,0
			C711.4,395.5,706.4,397.5,701.3,399.4z"/>
	</g>
	<g>
		<path class="st3" d="M728.7,392.2c1.7-0.1,3.4-0.2,5.1-0.3c1.7-0.1,3.4-0.1,5.1-0.2l0.2,0l0.1,0.1c2.4,2.1,4.7,4.2,7,6.4
			c1.2,1.1,2.3,2.2,3.4,3.3c1.1,1.1,2.2,2.2,3.3,3.4c-1.2-1-2.5-1.9-3.7-3c-1.2-1-2.4-2-3.6-3.1c-2.4-2.1-4.7-4.2-7-6.3l0.3,0.1
			c-1.7,0-3.4-0.1-5.1-0.2C732.1,392.4,730.4,392.3,728.7,392.2z"/>
	</g>
	<g>
		<path class="st3" d="M738.9,388.1c1.1-0.1,2.2-0.2,3.3-0.3l0.1,0l0.1,0.1c2.1,1.9,4,4,5.9,6.1c1.9,2.1,3.8,4.2,5.5,6.5
			c-2.2-1.8-4.2-3.8-6.2-5.9c-2-2-3.9-4.1-5.7-6.3l0.2,0.1C741.1,388.3,740,388.2,738.9,388.1z"/>
	</g>
	<g>
		<polygon class="st3" points="691.3,412.8 714.6,401.5 691.7,413.7 		"/>
	</g>
	<polygon class="st8" points="693.1,412.3 713.8,401.9 735.2,402.5 757,420.5 735.2,404.9 714.1,403.4 	"/>
	<polygon class="st8" points="692.3,414.9 712.6,420.5 738,420.5 748.8,417.7 755.6,419.5 735.2,403.4 715.3,402.5 734.2,404.3 
		750.9,417.7 745.2,416.8 736.7,419 712.6,418.7 	"/>
	<path class="st8" d="M719,405.3c-4.4,4.7-6.8,8.5-1.7,14.5c-2.7,0-7.8-4-6.5-8.8c1.3-4.8,2.5-3.7,3.4-5.6
		C715,403.3,720.5,403.6,719,405.3z"/>
	<path class="st8" d="M713.8,410.9c0,0,5.1-2,5.5-0.6c0.4,1.4,1.9,5.8,4.4,5.8s5-3.3,4.9-5.2s0.3-2.4-2.6-2.5s-10.4-0.8-11.4,0
		C713.6,409.2,713.8,410.9,713.8,410.9z"/>
	<path class="st8" d="M730.8,404c0,0,3.7,8.3,3.4,9.7c-0.3,1.4-4.2,6.1-4.2,6.1h2.1c0,0,3.8-4.5,3.1-8.6s-1-6.9-1-6.9L730.8,404z"/>
	<polyline class="st8" points="709.3,422.2 718.3,424.3 739.7,423.2 750.4,420.5 760.4,424.3 	"/>
	<line class="st8" x1="760.4" y1="420.5" x2="741.6" y2="404.9"/>
	<path class="st8" d="M730.8,427c0,0,15.3-0.5,18.2,0s-36.1-1.7-36.1-1.7s16.7,6.4,19.8,5.8s20.2,1.1,20.2,1.1"/>
	<path d="M891.1,543.9"/>
	<g>
		<path class="st11" d="M740.6,539.9c0.4,0.4,0.7,0.8,1.1,1.1C741.5,540.6,741.1,540.2,740.6,539.9z"/>
		<g>
			<path class="st11" d="M834.9,268c-30.8-79.9-53.9-52.1-53.9-55.5c-11.5-41.2-120.7-189.2-293.1,28.6
				c-30.1,79.9-34.1,134.5,1.4,261.5l0.8,10.9c-4.6,38.7-12.4,93.4,52.7,192.1c4.6,7.4,11.5,21.1,19.9,26.9
				c20.7,14.2,63.8,23.7,89.4,25.9c30.6-9.8,31.1-15.6,75.8-39.3c24.3-48,61.3-66.8,71.1-99.7c12.4-41.3,16.2-89.4,15.8-133.6
				C827.2,416.9,865.8,347.9,834.9,268z M801.1,504.9c-3.4,45.2-33.5,33-33.5,33s-16.1,11.6-25.9,3c0.5,0.8,0.5,1.6,0.2,2.5
				c-8.3-8.3-16.6-14.8-20.7-13.5c-9.3,3-12.4,0.2-10.6,6.8c2.7,9.8,4.2,18.2,5,25.4c-12.6,13.6-25.5,27.3-70.7,27.3
				c-27.5,0-50.3-7.1-59.9-22c-1.4-1-2.6-1.5-3.7-1.7c0.4-9.1-1.8-21.1-0.5-29.4c2-13.4-25.2,4.7-25.2,4.7l-3.7,4.1
				c-0.2-0.4-0.3-0.9-0.3-1.4c-5.7-3.2-37.7,12-45-2.5c-7.1-14.1-0.5-36.3-8.4-76.6c-7.9-40.3,2.5-96.4,11.3-136.8
				c2.3-10.6,10.1-37.9,54.8-66s120.7-6.1,153.1-6.1c16.8,11,14.5,25.6,43.6,45.2c11.2,34.2,35.8,43.5,35.8,43.5l-3.4,55.4
				l15.6,37.9C809,437.7,804.5,459.7,801.1,504.9z"/>
			<path class="st11" d="M577.6,528.9c0.2,2.5,14.6,1,14.6,1l37.4-5.7l7.1-10.6c-4.3-0.6-42.2-1.7-42.2-1.7S577.5,526.4,577.6,528.9
				z"/>
			<path class="st11" d="M705.2,511.9c-5.9-7.7-53.7,2.8-57.7,4l-2.6,8.2c0,0,58.3,12.7,66.3,2.8C719.2,517,711.1,519.6,705.2,511.9
				z"/>
		</g>
	</g>
	<path class="st8" d="M673.9,385l-1.5-8.5l-1.6,0.4l3-4.2l4.1,0.8v-1.7l39.3-14.3l-18.1,9.4l22-3.9c0,0,37.6,5.4,42.7,10.2
		c5.1,4.8,15.8,20.8,15.8,20.8l-31.3-17.6h-36.5L673.9,385z"/>
</g>
</svg>
